<svg xmlns="http://www.w3.org/2000/svg" width="800" height="800" viewBox="0 0 800 800">
  <!-- Transparent background -->

  <!-- ===== ROUGH CONCRETE FLOOR ===== -->
  <!-- Floor base -->
  <rect x="90" y="90" width="620" height="620" fill="#374151" opacity="0.55"/>

  <!-- Concrete texture — irregular dark patches -->
  <rect x="90"  y="90"  width="80"  height="70"  fill="#2D3748" opacity="0.4"/>
  <rect x="180" y="100" width="110" height="60"  fill="#4B5563" opacity="0.35"/>
  <rect x="310" y="90"  width="90"  height="80"  fill="#2D3748" opacity="0.3"/>
  <rect x="420" y="95"  width="120" height="55"  fill="#4B5563" opacity="0.4"/>
  <rect x="560" y="90"  width="150" height="70"  fill="#2D3748" opacity="0.35"/>

  <rect x="90"  y="180" width="60"  height="100" fill="#4B5563" opacity="0.3"/>
  <rect x="160" y="200" width="130" height="80"  fill="#2D3748" opacity="0.25"/>
  <rect x="400" y="170" width="100" height="90"  fill="#4B5563" opacity="0.3"/>
  <rect x="620" y="180" width="90"  height="110" fill="#2D3748" opacity="0.35"/>

  <rect x="90"  y="350" width="90"  height="120" fill="#4B5563" opacity="0.3"/>
  <rect x="300" y="330" width="150" height="100" fill="#2D3748" opacity="0.25"/>
  <rect x="550" y="360" width="160" height="90"  fill="#4B5563" opacity="0.3"/>

  <rect x="90"  y="530" width="120" height="80"  fill="#2D3748" opacity="0.3"/>
  <rect x="250" y="550" width="180" height="60"  fill="#4B5563" opacity="0.25"/>
  <rect x="500" y="540" width="110" height="90"  fill="#2D3748" opacity="0.3"/>
  <rect x="620" y="520" width="90"  height="100" fill="#4B5563" opacity="0.35"/>

  <!-- Concrete crack lines -->
  <g stroke="#1F2937" stroke-width="1.5" opacity="0.5" fill="none">
    <polyline points="130,150 180,200 220,190 260,240"/>
    <polyline points="400,120 430,180 410,230 450,280"/>
    <polyline points="580,200 560,270 600,320 580,380"/>
    <polyline points="150,400 200,450 180,510 220,560"/>
    <polyline points="500,450 540,490 520,540 560,580"/>
    <polyline points="300,600 350,640 380,620 420,670"/>
  </g>

  <!-- ===== BLOCK/BRICK WALLS — raw construction ===== -->
  <!-- Left wall blocks -->
  <g fill="#6B7280" opacity="0.65" stroke="#4B5563" stroke-width="1">
    <!-- Course 1 (bottom) -->
    <rect x="90" y="680" width="58" height="28"/>
    <rect x="150" y="680" width="58" height="28"/>
    <rect x="210" y="680" width="58" height="28"/>
    <rect x="268" y="680" width="58" height="28"/>
    <rect x="326" y="680" width="58" height="28"/>
    <rect x="384" y="680" width="58" height="28"/>
    <rect x="442" y="680" width="58" height="28"/>
    <rect x="500" y="680" width="58" height="28"/>
    <rect x="558" y="680" width="58" height="28"/>
    <rect x="616" y="680" width="58" height="28"/>
    <rect x="674" y="680" width="36" height="28"/>
    <!-- Course 2 (offset) -->
    <rect x="90"  y="652" width="29" height="26"/>
    <rect x="121" y="652" width="58" height="26"/>
    <rect x="181" y="652" width="58" height="26"/>
    <rect x="239" y="652" width="58" height="26"/>
    <rect x="297" y="652" width="58" height="26"/>
    <rect x="355" y="652" width="58" height="26"/>
    <rect x="413" y="652" width="58" height="26"/>
    <rect x="471" y="652" width="58" height="26"/>
    <rect x="529" y="652" width="58" height="26"/>
    <rect x="587" y="652" width="58" height="26"/>
    <rect x="645" y="652" width="65" height="26"/>
  </g>

  <!-- Top wall blocks -->
  <g fill="#6B7280" opacity="0.65" stroke="#4B5563" stroke-width="1">
    <rect x="90"  y="90" width="58" height="28"/>
    <rect x="150" y="90" width="58" height="28"/>
    <rect x="210" y="90" width="58" height="28"/>
    <rect x="268" y="90" width="58" height="28"/>
    <rect x="326" y="90" width="58" height="28"/>
    <rect x="384" y="90" width="58" height="28"/>
    <rect x="442" y="90" width="58" height="28"/>
    <rect x="500" y="90" width="58" height="28"/>
    <rect x="558" y="90" width="58" height="28"/>
    <rect x="616" y="90" width="58" height="28"/>
    <rect x="674" y="90" width="36" height="28"/>
    <rect x="90"  y="120" width="29" height="26"/>
    <rect x="121" y="120" width="58" height="26"/>
    <rect x="181" y="120" width="58" height="26"/>
    <rect x="239" y="120" width="58" height="26"/>
    <rect x="297" y="120" width="58" height="26"/>
    <rect x="355" y="120" width="58" height="26"/>
    <rect x="413" y="120" width="58" height="26"/>
    <rect x="471" y="120" width="58" height="26"/>
    <rect x="529" y="120" width="58" height="26"/>
    <rect x="587" y="120" width="58" height="26"/>
    <rect x="645" y="120" width="65" height="26"/>
  </g>

  <!-- Left wall vertical blocks -->
  <g fill="#6B7280" opacity="0.65" stroke="#4B5563" stroke-width="1">
    <rect x="90" y="148" width="28" height="50"/>
    <rect x="90" y="200" width="28" height="50"/>
    <rect x="90" y="252" width="28" height="50"/>
    <rect x="90" y="304" width="28" height="50"/>
    <rect x="90" y="356" width="28" height="50"/>
    <rect x="90" y="408" width="28" height="50"/>
    <rect x="90" y="460" width="28" height="50"/>
    <rect x="90" y="512" width="28" height="50"/>
    <rect x="90" y="564" width="28" height="50"/>
    <rect x="90" y="616" width="28" height="50"/>
    <!-- Offset course -->
    <rect x="120" y="174" width="28" height="50"/>
    <rect x="120" y="226" width="28" height="50"/>
    <rect x="120" y="278" width="28" height="50"/>
    <rect x="120" y="330" width="28" height="50"/>
    <rect x="120" y="382" width="28" height="50"/>
    <rect x="120" y="434" width="28" height="50"/>
    <rect x="120" y="486" width="28" height="50"/>
    <rect x="120" y="538" width="28" height="50"/>
    <rect x="120" y="590" width="28" height="50"/>
    <rect x="120" y="642" width="28" height="36"/>
  </g>

  <!-- Right wall vertical blocks -->
  <g fill="#6B7280" opacity="0.65" stroke="#4B5563" stroke-width="1">
    <rect x="682" y="148" width="28" height="50"/>
    <rect x="682" y="200" width="28" height="50"/>
    <rect x="682" y="252" width="28" height="50"/>
    <rect x="682" y="304" width="28" height="50"/>
    <rect x="682" y="356" width="28" height="50"/>
    <rect x="682" y="408" width="28" height="50"/>
    <rect x="682" y="460" width="28" height="50"/>
    <rect x="682" y="512" width="28" height="50"/>
    <rect x="682" y="564" width="28" height="50"/>
    <rect x="682" y="616" width="28" height="50"/>
    <rect x="652" y="174" width="28" height="50"/>
    <rect x="652" y="226" width="28" height="50"/>
    <rect x="652" y="278" width="28" height="50"/>
    <rect x="652" y="330" width="28" height="50"/>
    <rect x="652" y="382" width="28" height="50"/>
    <rect x="652" y="434" width="28" height="50"/>
    <rect x="652" y="486" width="28" height="50"/>
    <rect x="652" y="538" width="28" height="50"/>
    <rect x="652" y="590" width="28" height="50"/>
    <rect x="652" y="642" width="28" height="36"/>
  </g>

  <!-- ===== EXPOSED REBAR STUBS ===== -->
  <g stroke="#9CA3AF" stroke-width="3" opacity="0.7">
    <line x1="150" y1="90" x2="150" y2="60"/>
    <line x1="280" y1="90" x2="275" y2="55"/>
    <line x1="420" y1="90" x2="422" y2="58"/>
    <line x1="560" y1="90" x2="558" y2="62"/>
    <line x1="650" y1="90" x2="652" y2="55"/>
    <line x1="90" y1="200" x2="60" y2="198"/>
    <line x1="90" y1="350" x2="58" y2="352"/>
    <line x1="90" y1="500" x2="62" y2="498"/>
    <line x1="90" y1="620" x2="60" y2="622"/>
    <line x1="710" y1="250" x2="740" y2="248"/>
    <line x1="710" y1="400" x2="742" y2="402"/>
    <line x1="710" y1="550" x2="738" y2="552"/>
  </g>
  <!-- Rebar circles -->
  <g fill="none" stroke="#9CA3AF" stroke-width="2" opacity="0.6">
    <circle cx="150" cy="58" r="4"/>
    <circle cx="280" cy="53" r="4"/>
    <circle cx="420" cy="56" r="4"/>
  </g>

  <!-- ===== DUST / DEBRIS PATCHES on floor ===== -->
  <ellipse cx="200" cy="400" rx="60" ry="30" fill="#9CA3AF" opacity="0.2"/>
  <ellipse cx="500" cy="500" rx="80" ry="35" fill="#9CA3AF" opacity="0.15"/>
  <ellipse cx="350" cy="600" rx="50" ry="25" fill="#6B7280" opacity="0.2"/>

  <!-- ===== LABEL "ESTADO ACTUAL" ===== -->
  <rect x="90" y="90" width="260" height="38" rx="4" fill="#DC2626" opacity="0.9"/>
  <text x="102" y="115" font-family="Arial, sans-serif" font-size="22" font-weight="bold" fill="#FFFFFF">ESTADO ACTUAL</text>

  <!-- Sub-label -->
  <rect x="90" y="135" width="240" height="24" rx="3" fill="#1F2937" opacity="0.75"/>
  <text x="102" y="152" font-family="Arial, sans-serif" font-size="13" fill="#FCA5A5">Sin instalaciones — obra negra</text>

  <!-- ===== CONSTRUCTION ZONE DIAGONAL LINES ===== -->
  <g stroke="#6B7280" stroke-width="1" opacity="0.18">
    <line x1="200" y1="90"  x2="90"  y2="200"/>
    <line x1="300" y1="90"  x2="90"  y2="300"/>
    <line x1="400" y1="90"  x2="90"  y2="400"/>
    <line x1="500" y1="90"  x2="90"  y2="500"/>
    <line x1="600" y1="90"  x2="90"  y2="600"/>
    <line x1="700" y1="90"  x2="90"  y2="700"/>
    <line x1="710" y1="100" x2="200" y2="610"/>
    <line x1="710" y1="200" x2="300" y2="620"/>
    <line x1="710" y1="300" x2="400" y2="620"/>
    <line x1="710" y1="400" x2="500" y2="620"/>
    <line x1="710" y1="500" x2="600" y2="620"/>
  </g>

</svg>
